<?xml version="1.0" encoding="UTF-8"?>
<svg width="195px" height="46px" viewBox="0 0 195 46" version="1.1" xmlns="http://www.w3.org/2000/svg" xmlns:xlink="http://www.w3.org/1999/xlink">
    <!-- Generator: Sketch 51.2 (57519) - http://www.bohemiancoding.com/sketch -->
    <title>Blockledger Primary</title>
    <desc>Created with Sketch.</desc>
    <defs></defs>
    <g id="Symbols" stroke="none" stroke-width="1" fill="none" fill-rule="evenodd">
        <g id="Navbar" transform="translate(-44.000000, -7.000000)">
            <g id="Blockledger-Primary" transform="translate(44.000000, 7.000000)">
                <path d="M37.6196962,28.4447301 C37.6196962,26.0398458 35.6945642,24.1799486 33.1891848,24.1799486 L26.2874642,24.1799486 L26.2874642,32.7197943 L33.1401862,32.7197943 C35.6848934,32.7197943 37.6196962,30.8926735 37.6196962,28.4447301 Z M26.2874642,14.2564267 L26.2874642,21.9228792 L33.0937664,21.9228792 C35.3186928,21.9228792 37.0097917,20.1709512 37.0097917,18.0751928 C37.0097917,15.9158098 35.2561551,14.2564267 33.0247814,14.2564267 L26.2874642,14.2564267 Z M40,28.6979434 C40,32.2300771 37.082645,35 33.0879639,35 L24,35 L24,12 L32.9951243,12 C36.7267599,12 39.3668856,14.5006427 39.3668856,17.7757069 C39.3668856,19.9434447 38.1361164,22.062982 36.2825483,23.0089974 C38.5332635,23.8663239 40,26.0976864 40,28.6979434 Z" id="Fill-1" fill="#191919"></path>
                <polygon id="Fill-3" fill="#191919" points="41 35 43 35 43 11 41 11"></polygon>
                <path d="M60.8054362,25 C60.8054362,21.024536 57.931102,18.1075276 54.0003093,18.1075276 C50.0695165,18.1075276 47.1951823,21.014527 47.1951823,25 C47.1951823,28.975464 50.0787945,31.8924724 54.0003093,31.8924724 C57.931102,31.8924724 60.8054362,28.975464 60.8054362,25 M45,25 C45,19.8059359 48.8608983,16 54.0003093,16 C59.1483798,16 63,19.8378397 63,25 C63,30.1615347 59.1483798,34 54.0003093,34 C48.8608983,34 45,30.1615347 45,25" id="Fill-5" fill="#191919"></path>
                <path d="M64,25 C64,19.8509766 67.792701,16 72.8040445,16 C76.7667887,16 79.8756206,18.3602558 80.9593375,21.9553764 L78.8301018,21.9553764 C77.7685645,19.5632168 75.5037872,18.1075276 72.8040445,18.1075276 C69.0181205,18.1075276 66.1865328,21.0914715 66.1865328,25 C66.1865328,28.8985195 69.0495416,31.8924724 72.8040445,31.8924724 C75.4939296,31.8924724 77.7149639,30.4467922 78.8264052,27.9683047 L81,27.9683047 C79.8885587,31.6366164 76.7162686,34 72.8040445,34 C67.8019425,34 64,30.1302565 64,25" id="Fill-6" fill="#191919"></path>
                <polygon id="Fill-7" fill="#191919" points="86.9047534 26.8010152 84.1746783 26.8010152 84.1746783 35 82 35 82 11 84.1746783 11 84.1746783 24.732514 86.939153 24.732514 92.6995175 17.2971948 95.360168 17.2971948 88.7948535 25.7783062 96 35 93.2718013 35"></polygon>
                <polygon id="Fill-8" fill="#D71932" points="98 35 100 35 100 11 98 11"></polygon>
                <path d="M103.290132,23.7976646 C103.795023,20.3833322 106.471591,18.0631125 110.06473,18.0631125 C113.562716,18.0631125 116.253524,20.3020088 116.764241,23.7976646 L103.290132,23.7976646 Z M110.064082,16 C104.908372,16 101,19.8703691 101,24.9906165 C101,30.1302565 104.908372,34 110.064082,34 C113.870181,34 116.928006,31.995065 118.497051,28.4800167 L116.120829,28.4800167 C114.912327,30.603809 112.754891,31.869952 110.064082,31.869952 C106.344721,31.869952 103.607955,29.4139848 103.244822,25.8157364 L118.953395,25.8157364 C118.976697,25.550497 119,25.2752485 119,25.010009 C119,19.985473 115.395857,16 110.064082,16 Z" id="Fill-9" fill="#D71932"></path>
                <path d="M128.083677,32.8728822 C124.146452,32.8728822 121.232226,29.8971904 121.232226,25.9163422 C121.232226,21.9272861 124.146452,18.9598022 128.083677,18.9598022 C132.040405,18.9598022 134.947711,21.9298116 134.947711,25.9163422 C134.947711,29.8807745 132.040405,32.8728822 128.083677,32.8728822 Z M134.813072,19.9567505 C133.211255,18.0184152 130.782733,16.8326844 127.926389,16.8326844 C122.750996,16.8326844 119,20.7163001 119,25.9163422 C119,31.094286 122.750996,35 127.926389,35 C130.878993,35 133.375463,33.725876 134.972877,31.66821 L135.285564,34.6325371 L137,34.6325371 L137,11 L134.813072,11 L134.813072,19.9567505 Z" id="Fill-10" fill="#D71932"></path>
                <path d="M147.563164,31.5087315 C143.905209,31.5087315 141.186392,28.6405586 141.186392,24.8454762 C141.186392,21.0367914 143.905209,18.1595502 147.563164,18.1595502 C151.211259,18.1595502 153.879545,20.9940408 153.879545,24.8454762 C153.879545,28.6839569 151.221119,31.5087315 147.563164,31.5087315 Z M154.196288,19.5936366 C152.693298,17.3893927 150.228368,16 147.342553,16 C142.635154,16 139,19.8546741 139,24.8454762 C139,29.8459944 142.625911,33.667634 147.342553,33.667634 C150.058905,33.667634 152.387646,32.4667323 153.901729,30.5138097 L153.901729,31.9951808 C153.901729,36.3401907 151.463914,38.933076 147.752347,38.933076 C145.064342,38.933076 142.84036,37.5592289 142.002284,35.1185615 L139.859644,35.1185615 C140.83021,38.8009379 143.70062,41 147.752347,41 C152.875086,41 156,37.4892735 156,31.7173023 L156,16.3776298 L154.541994,16.3776298 L154.196288,19.5936366 Z" id="Fill-11" fill="#D71932"></path>
                <path d="M159.290697,23.7976646 C159.79557,20.3833322 162.471394,18.0631125 166.064404,18.0631125 C169.562264,18.0631125 172.253623,20.3020088 172.763674,23.7976646 L159.290697,23.7976646 Z M166.064404,16 C160.908878,16 157,19.8703691 157,24.9906165 C157,30.1302565 160.908878,34 166.064404,34 C169.870366,34 172.928081,31.995065 174.496422,28.4800167 L172.120285,28.4800167 C170.912474,30.603809 168.755115,31.869952 166.064404,31.869952 C162.344529,31.869952 159.608508,29.4139848 159.245388,25.8157364 L174.952749,25.8157364 C174.976698,25.550497 175,25.2752485 175,25.010009 C175,19.985473 171.395987,16 166.064404,16 Z" id="Fill-12" fill="#D71932"></path>
                <path d="M183.51076,17 C180.957778,17 179.089158,18.1411056 177.909203,20.1513469 L177.543349,17.0798384 L176,17.0798384 L176,35 L178.137938,35 L178.137938,25.1506617 C178.137938,21.5131441 180.087108,19.1400599 183.33429,19.1400599 L185,19.1400599 L185,17 L183.51076,17 Z" id="Fill-13" fill="#D71932"></path>
                <path d="M8.28564982,36.7746117 L6.84774368,36.0147606 C6.1351083,35.6386857 5.69413357,34.9288923 5.69476534,34.1581312 L5.71435018,9.01758439 L0,6 L0.0126353791,34.2691567 C0.0126353791,34.4071364 0.0202166065,34.5463997 0.0322202166,34.6875882 C0.0360108303,34.7337954 0.0442238267,34.7812861 0.0492779783,34.828135 C0.0593862816,34.9199076 0.0707581227,35.0116801 0.0859205776,35.1040945 C0.116245487,35.2902066 0.1566787,35.4782441 0.205956679,35.6669234 C0.220487365,35.7240406 0.238808664,35.7817995 0.255234657,35.8389167 C0.284927798,35.9441663 0.317148014,36.0487742 0.352527076,36.1540239 C0.375270758,36.2220511 0.400541516,36.2900783 0.425812274,36.3581055 C0.457400722,36.4441022 0.490884477,36.5300988 0.526263538,36.6160955 C0.55532491,36.6873315 0.585649819,36.7579258 0.617238267,36.8285201 C0.652617329,36.9080991 0.689259928,36.9870363 0.727166065,37.0653318 C0.761913357,37.1359261 0.79666065,37.2071621 0.833935018,37.2777564 C0.874368231,37.3560519 0.916064982,37.4337056 0.95965704,37.5107175 C0.997563177,37.5787447 1.03673285,37.6474137 1.0765343,37.7141574 C1.12581227,37.7969452 1.17635379,37.8778077 1.22815884,37.9586703 C1.26796029,38.0215633 1.3083935,38.0844564 1.34945848,38.1454242 C1.41642599,38.244898 1.48592058,38.3405211 1.5566787,38.436786 C1.59268953,38.4855603 1.62743682,38.535618 1.66471119,38.5831087 C1.78727437,38.7422667 1.9148917,38.8969324 2.04693141,39.0451803 C2.091787,39.0958799 2.13916968,39.1433706 2.18528881,39.1927865 C2.25225632,39.2646644 2.31922383,39.3365422 2.38871841,39.4052111 C2.4398917,39.4559107 2.49232852,39.5034014 2.54476534,39.5521756 C2.61299639,39.6163522 2.68122744,39.679887 2.75135379,39.7408548 C2.79305054,39.7767937 2.83537906,39.8095238 2.87707581,39.8448209 C2.99142599,39.9385188 3.10703971,40.0270825 3.22391697,40.1117957 C3.26877256,40.1432422 3.31236462,40.1753305 3.35722022,40.2054935 C3.51263538,40.3107432 3.66994585,40.4108587 3.83104693,40.4974971 L4.57527076,40.9005262 L14,46 L14,39.7928379 L8.28564982,36.7746117 Z" id="Fill-14" fill="#D71932"></path>
                <path d="M14,40 L13.9962094,27.3668335 C13.9955776,26.2360416 13.5666065,25.1424721 12.7870036,24.283789 L11.6504513,23.0317032 L12.7838448,21.7815428 C13.5634477,20.9215762 13.991787,19.8267231 13.9911552,18.6952894 L13.9873646,11.7302015 C13.9873646,11.5928636 13.9804152,11.4529585 13.9677798,11.3124118 C13.9639892,11.2655628 13.9564079,11.2180721 13.950722,11.1712232 C13.9406137,11.0800924 13.9298736,10.9876781 13.9147112,10.8952638 C13.8837545,10.7091516 13.8433213,10.5211141 13.7940433,10.3324349 C13.7795126,10.2753177 13.7618231,10.2182005 13.7453971,10.1604415 C13.7150722,10.0558337 13.6834838,9.95058401 13.6474729,9.84597613 C13.6247292,9.77794892 13.6000903,9.7099217 13.5748195,9.64189449 C13.5425993,9.55589783 13.5097473,9.46990117 13.4737365,9.38390451 C13.4446751,9.31266846 13.4143502,9.24143242 13.3827617,9.17083815 C13.3473827,9.09190091 13.3107401,9.01296368 13.2728339,8.93466821 C13.2380866,8.86343217 13.2033394,8.79283789 13.1666968,8.72224361 C13.1256318,8.64394815 13.083935,8.56629444 13.040343,8.48864074 C13.0024368,8.42061353 12.9632671,8.35258632 12.9234657,8.28520087 C12.8748195,8.20305481 12.8236462,8.12155051 12.7724729,8.04068797 C12.7320397,7.97843666 12.6922383,7.91554358 12.6505415,7.85393403 C12.583574,7.75510204 12.5140794,7.65883712 12.4433213,7.56321396 C12.4073105,7.51379797 12.3725632,7.46438198 12.3352888,7.41624952 C12.2127256,7.25709152 12.0857401,7.10306764 11.9530686,6.9541779 C11.908213,6.90347837 11.8608303,6.85598768 11.815343,6.80657169 C11.7483755,6.73533564 11.6814079,6.66345784 11.6119134,6.59478886 C11.5607401,6.54408933 11.5076715,6.49595687 11.4558664,6.44718265 C11.3870036,6.3836478 11.3187726,6.31947118 11.249278,6.25914517 C11.2075812,6.22320626 11.1646209,6.18983442 11.1229242,6.15517905 C11.0092058,6.0614812 10.8935921,5.9722757 10.776083,5.88820434 C10.7318592,5.85611603 10.6876354,5.82466949 10.6434116,5.79386472 C10.4873646,5.68861507 10.3300542,5.58914132 10.1695848,5.50250289 L9.42472924,5.09947375 L0,0 L0,6.20716211 L5.71371841,9.2247465 L7.15288809,9.98459761 C7.8648917,10.3606726 8.30586643,11.0711077 8.30523466,11.8412271 L8.28564982,36.9817738 L14,40 Z" id="Fill-15" fill="#8E1525"></path>
                <polygon id="Fill-29" fill="#191919" points="188.269361 20 188.269361 16.4331872 187 16.4331872 187 16 190 16 190 16.4331872 188.729962 16.4331872 188.729962 20"></polygon>
                <polygon id="Fill-30" fill="#191919" points="190 16.1788137 188.600796 16.1788137 188.600796 20 188.399204 20 188.399204 16.1788137 187 16.1788137 187 16 190 16"></polygon>
                <polygon id="Fill-31" fill="#191919" points="194.532457 20 193.968017 16.9235265 192.625695 19.830492 192.376338 19.830492 191.036726 16.9267738 190.466865 20 190 20 190.737227 16 191.106518 16 192.497628 19.0446501 193.898225 16 194.269549 16 195 20"></polygon>
                <polygon id="Fill-32" fill="#191919" points="193.841509 20 193.307402 16.3597147 192.029608 19.8184032 191.971553 19.8184032 190.697242 16.3631936 190.159071 20 190 20 190.58984 16 190.728012 16 191.997678 19.4746913 193.275472 16 193.415965 16 194 20"></polygon>
            </g>
        </g>
    </g>
</svg>